<?xml version="1.0" encoding="UTF-8" standalone="no"?>
<!-- Created with Inkscape (http://www.inkscape.org/) -->

<svg
   xmlns:dc="http://purl.org/dc/elements/1.1/"
   xmlns:cc="http://creativecommons.org/ns#"
   xmlns:rdf="http://www.w3.org/1999/02/22-rdf-syntax-ns#"
   xmlns:svg="http://www.w3.org/2000/svg"
   xmlns="http://www.w3.org/2000/svg"
   xmlns:sodipodi="http://sodipodi.sourceforge.net/DTD/sodipodi-0.dtd"
   xmlns:inkscape="http://www.inkscape.org/namespaces/inkscape"
   width="171"
   height="188.3"
   id="svg6716"
   version="1.1"
   inkscape:version="0.48.1 "
   sodipodi:docname="新建文档 5">
  <defs
     id="defs6718" />
  <sodipodi:namedview
     pagecolor="#000000"
     bordercolor="#000000"
     borderopacity="1.0"
     inkscape:pageopacity="1.0"
     inkscape:pageshadow="0"
     inkscape:zoom="0.34"
     inkscape:cx="-26.2647"
     inkscape:cy="343.56172"
     inkscape:document-units="px"
     inkscape:current-layer="layer1"
     id="namedview6720"
     showgrid="false"
     fit-margin-top="0"
     fit-margin-left="0"
     fit-margin-right="0"
     fit-margin-bottom="0"
     inkscape:window-width="1920"
     inkscape:window-height="1018"
     inkscape:window-x="-8"
     inkscape:window-y="-8"
     inkscape:window-maximized="1" />
  <metadata
     id="metadata6722">
    <rdf:RDF>
      <cc:Work
         rdf:about="">
        <dc:format>image/svg+xml</dc:format>
        <dc:type
           rdf:resource="http://purl.org/dc/dcmitype/StillImage" />
        <dc:title></dc:title>
      </cc:Work>
    </rdf:RDF>
  </metadata>
  <g
     inkscape:label="Layer 1"
     inkscape:groupmode="layer"
     id="layer1"
     transform="translate(-376.2647,-687.6239)">
    <g
       transform="translate(4301.3647,-4214.9761)"
       id="g557">
      <path
         inkscape:connector-curvature="0"
         class="st0"
         d="m -3858,5005.4 c 0,9.4 7.6,17.1 17.1,17.1 9.4,0 17.1,-7.6 17.1,-17.1 0,-9.5 -7.6,-17.1 -17.1,-17.1 -9.4,0 -17.1,7.7 -17.1,17.1 l 0,0 z m 0,0"
         id="path559"
         style="fill:#ffffff" />
      <g
         id="g561">
        <path
           inkscape:connector-curvature="0"
           class="st0"
           d="m -3814,4947.1 c -8.6,-3.6 -17.7,-5.5 -27.1,-5.5 -9.4,0 -18.5,1.8 -27.1,5.5 -8.3,3.5 -15.7,8.5 -22.1,14.9 -3.6,3.6 -3.6,9.3 0,12.9 3.6,3.6 9.3,3.6 12.9,0 4.7,-4.7 10.2,-8.4 16.4,-11 6.3,-2.7 13.1,-4 20,-4 6.9,0 13.7,1.4 20,4 6.1,2.6 11.6,6.3 16.4,11 1.8,1.8 4.1,2.7 6.4,2.7 2.3,0 4.7,-0.9 6.4,-2.7 3.6,-3.6 3.6,-9.3 0,-12.9 -6.5,-6.4 -13.9,-11.4 -22.2,-14.9 l 0,0 z m 0,0"
           id="path563"
           style="fill:#ffffff" />
        <path
           inkscape:connector-curvature="0"
           class="st0"
           d="m -3764.3,4934.4 c -10,-10 -21.6,-17.8 -34.5,-23.3 -13.4,-5.7 -27.6,-8.5 -42.3,-8.5 -14.7,0 -28.9,2.9 -42.3,8.5 -12.9,5.5 -24.6,13.3 -34.5,23.3 -3.6,3.6 -3.6,9.3 0,12.9 1.8,1.8 4.1,2.7 6.4,2.7 2.3,0 4.7,-0.9 6.4,-2.7 8.3,-8.3 18,-14.8 28.8,-19.4 11.1,-4.7 23,-7.1 35.2,-7.1 12.2,0 24.1,2.4 35.2,7.1 10.8,4.6 20.4,11.1 28.8,19.4 3.6,3.6 9.3,3.6 12.9,0 3.5,-3.5 3.5,-9.3 -0.1,-12.9 l 0,0 z m 0,0"
           id="path565"
           style="fill:#ffffff" />
      </g>
    </g>
    <g
       transform="translate(4301.3647,-4214.9761)"
       id="g1031">
      <path
         inkscape:connector-curvature="0"
         class="st0"
         d="m -3884.5,5035.5 c 0.8,0.7 1.2,1.6 1.2,2.7 v 36.3 c 0,1.1 -0.4,2 -1.1,2.7 -0.7,0.7 -1.7,1.1 -2.8,1.1 -1.2,0 -2.1,-0.4 -2.9,-1.1 -0.7,-0.7 -1.1,-1.6 -1.1,-2.8 v -25.3 l -10.3,15.8 c -0.4,0.5 -0.9,0.9 -1.4,1.2 -0.5,0.3 -1.1,0.4 -1.7,0.4 -0.5,0 -1.1,-0.1 -1.6,-0.4 -0.5,-0.3 -1,-0.7 -1.4,-1.2 l -10.3,-16.4 v 25.8 c 0,1.1 -0.3,2 -1,2.8 -0.7,0.7 -1.5,1.1 -2.6,1.1 -1,0 -1.9,-0.4 -2.6,-1.1 -0.7,-0.7 -1,-1.6 -1,-2.7 v -36.3 c 0,-1 0.4,-1.9 1.2,-2.7 0.8,-0.8 1.7,-1.1 2.8,-1.1 0.6,0 1.3,0.2 1.9,0.5 0.6,0.3 1.1,0.7 1.4,1.2 l 13.7,21 14,-21 c 0.3,-0.5 0.8,-0.9 1.3,-1.2 0.6,-0.3 1.1,-0.5 1.7,-0.5 0.9,0.1 1.8,0.5 2.6,1.2 z"
         id="path1033"
         style="fill:#ffffff" />
      <path
         inkscape:connector-curvature="0"
         class="st0"
         d="m -3830.9,5081.2 c 0.8,0.8 1.1,1.6 1.1,2.5 0,1.2 -0.7,2.4 -2.1,3.5 -1.4,1.1 -3.1,2 -5.1,2.7 -2,0.7 -3.8,1 -5.4,1 -2.7,0 -4.8,-0.3 -6.4,-0.8 -1.6,-0.5 -3.1,-1.2 -4.7,-2.2 -1,-0.6 -1.9,-1.1 -2.6,-1.3 -0.7,-0.3 -1.5,-0.4 -2.4,-0.4 -0.5,0 -0.9,0.1 -1.3,0.2 -0.3,0.1 -0.8,0.3 -1.3,0.6 -0.5,0.3 -1,0.5 -1.5,0.7 -0.5,0.1 -1,0.2 -1.8,0.2 -1,0 -1.9,-0.4 -2.6,-1.2 -0.7,-0.8 -1.1,-1.6 -1.1,-2.6 0,-1.6 0.7,-2.7 2.2,-3.3 l 6.2,-2.3 c -3.3,-0.7 -6.1,-2.1 -8.7,-4.2 -2.5,-2.1 -4.5,-4.7 -5.8,-7.8 -1.4,-3.1 -2.1,-6.4 -2.1,-10 0,-4.1 0.9,-7.9 2.7,-11.4 1.8,-3.4 4.3,-6.2 7.6,-8.2 3.2,-2 6.9,-3 10.9,-3 4.1,0 7.7,1 10.9,3 3.2,2 5.8,4.7 7.6,8.2 1.8,3.4 2.8,7.2 2.8,11.4 0,3.6 -0.7,6.9 -2.1,10 -1.4,3.1 -3.4,5.7 -5.9,7.8 -2.5,2.1 -5.4,3.5 -8.7,4.2 l -3.8,1.4 c 1,0.1 1.8,0.4 2.7,0.7 0.8,0.3 1.7,0.8 2.8,1.4 1.3,0.7 2.4,1.2 3.4,1.6 1,0.3 2,0.5 3.3,0.5 1,0 1.9,-0.2 2.7,-0.5 0.8,-0.3 1.5,-0.8 2.2,-1.3 0.3,-0.2 0.6,-0.5 1.1,-0.9 0.5,-0.4 1,-0.7 1.4,-0.9 0.4,-0.2 0.8,-0.3 1.3,-0.3 0.9,-0.1 1.7,0.3 2.5,1 z m -35.5,-17.1 c 1.1,2.3 2.7,4.1 4.6,5.4 2,1.3 4.3,2 6.8,2 2.5,0 4.8,-0.7 6.8,-2 2,-1.3 3.6,-3.1 4.7,-5.4 1.1,-2.3 1.7,-4.8 1.7,-7.6 0,-2.8 -0.6,-5.3 -1.7,-7.6 -1.1,-2.3 -2.7,-4.1 -4.7,-5.4 -2,-1.3 -4.3,-2 -6.8,-2 -2.5,0 -4.8,0.7 -6.8,2 -2,1.3 -3.5,3.1 -4.6,5.4 -1.1,2.3 -1.7,4.8 -1.7,7.6 0.1,2.7 0.6,5.3 1.7,7.6 z"
         id="path1035"
         style="fill:#ffffff" />
      <path
         inkscape:connector-curvature="0"
         class="st0"
         d="m -3796.3,5035.5 c 0.7,0.7 1.1,1.5 1.1,2.6 0,1.1 -0.4,2 -1.1,2.6 -0.7,0.6 -1.6,1 -2.8,1 h -9.8 v 32.9 c 0,1.1 -0.4,2 -1.2,2.7 -0.8,0.7 -1.8,1.1 -2.9,1.1 -1.2,0 -2.1,-0.4 -2.9,-1.1 -0.8,-0.7 -1.1,-1.6 -1.1,-2.7 v -32.9 h -9.8 c -1.1,0 -2,-0.3 -2.8,-1 -0.7,-0.7 -1.1,-1.5 -1.1,-2.6 0,-1 0.4,-1.9 1.1,-2.6 0.7,-0.7 1.6,-1 2.7,-1 h 27.8 c 1.2,0 2.1,0.3 2.8,1 z"
         id="path1037"
         style="fill:#ffffff" />
      <path
         inkscape:connector-curvature="0"
         class="st0"
         d="m -3755.2,5035.5 c 0.7,0.7 1.1,1.5 1.1,2.6 0,1.1 -0.4,2 -1.1,2.6 -0.7,0.6 -1.6,1 -2.8,1 h -9.8 v 32.9 c 0,1.1 -0.4,2 -1.2,2.7 -0.8,0.7 -1.8,1.1 -2.9,1.1 -1.2,0 -2.1,-0.4 -2.9,-1.1 -0.8,-0.7 -1.1,-1.6 -1.1,-2.7 v -32.9 h -9.8 c -1.1,0 -2,-0.3 -2.8,-1 -0.7,-0.7 -1.1,-1.5 -1.1,-2.6 0,-1 0.4,-1.9 1.1,-2.6 0.7,-0.7 1.6,-1 2.7,-1 h 27.8 c 1.2,0 2.1,0.3 2.8,1 z"
         id="path1039"
         style="fill:#ffffff" />
    </g>
  </g>
</svg>
